<svg height="512" viewBox="0 0 128 128" fill="#f5b277" width="512" xmlns="http://www.w3.org/2000/svg" id="1068323263" class="svg u_1068323263" data-icon-custom="true" data-icon-name="shower.svg" alt="Liu Resorts Antalya, Deluxe Room Garden View"> <g> <path d="m115.977 85.558h-.75v-64.806a20.774 20.774 0 0 0 -20.75-20.752h-38.266a20.774 20.774 0 0 0 -20.75 20.75v12.514h-8.244a1.751 1.751 0 0 0 -1.365.655l-2.2 2.744a37.376 37.376 0 0 0 -8.152 21.546h-2.883a6.351 6.351 0 0 0 -6.344 6.344v4.594a1.751 1.751 0 0 0 1.75 1.75h66.377a1.75 1.75 0 0 0 1.75-1.75v-4.594a6.35 6.35 0 0 0 -6.343-6.344h-2.89a37.358 37.358 0 0 0 -8.146-21.546l-2.2-2.744a1.749 1.749 0 0 0 -1.364-.655h-8.246v-12.512a9.26 9.26 0 0 1 9.25-9.25h38.266a9.26 9.26 0 0 1 9.25 9.25v64.806h-.75a5.757 5.757 0 0 0 -5.75 5.75v.813h-8a5.75 5.75 0 0 0 0 11.5h8v.812a5.756 5.756 0 0 0 5.75 5.75h.75v16.065a1.75 1.75 0 0 0 1.75 1.75h8a1.751 1.751 0 0 0 1.75-1.75v-16.065h.75a5.757 5.757 0 0 0 5.75-5.75v-13.125a5.757 5.757 0 0 0 -5.75-5.75zm-43.329-21.005v2.847h-62.875v-2.847a2.847 2.847 0 0 1 2.844-2.844h57.188a2.847 2.847 0 0 1 2.843 2.844zm-16.606-25.7a33.863 33.863 0 0 1 7.375 19.355h-44.412a33.849 33.849 0 0 1 7.375-19.354l1.677-2.09h26.308zm38.435-30.853h-38.266a12.764 12.764 0 0 0 -12.75 12.75v12.514h-4.5v-12.512a17.269 17.269 0 0 1 17.25-17.252h38.266a17.27 17.27 0 0 1 17.25 17.25v64.808h-4.5v-64.806a12.764 12.764 0 0 0 -12.75-12.752zm-5.248 92.119a2.25 2.25 0 0 1 0-4.5h8v4.5zm22.5 24.377h-4.5v-14.313h4.5zm6.5-20.065a2.253 2.253 0 0 1 -2.25 2.25h-13a2.252 2.252 0 0 1 -2.25-2.25v-13.123a2.252 2.252 0 0 1 2.25-2.25h13a2.253 2.253 0 0 1 2.25 2.25z"></path> 
 <path d="m17.209 76.814a1.75 1.75 0 0 0 -1.75 1.75v6.88a1.75 1.75 0 0 0 3.5 0v-6.88a1.75 1.75 0 0 0 -1.75-1.75z"></path> 
 <path d="m29.21 76.814a1.75 1.75 0 0 0 -1.75 1.75v6.88a1.75 1.75 0 0 0 3.5 0v-6.88a1.75 1.75 0 0 0 -1.75-1.75z"></path> 
 <path d="m41.211 76.814a1.75 1.75 0 0 0 -1.75 1.75v6.88a1.75 1.75 0 0 0 3.5 0v-6.88a1.75 1.75 0 0 0 -1.75-1.75z"></path> 
 <path d="m53.211 76.814a1.75 1.75 0 0 0 -1.75 1.75v6.88a1.75 1.75 0 0 0 3.5 0v-6.88a1.749 1.749 0 0 0 -1.75-1.75z"></path> 
 <path d="m65.212 76.814a1.75 1.75 0 0 0 -1.75 1.75v6.88a1.75 1.75 0 0 0 3.5 0v-6.88a1.749 1.749 0 0 0 -1.75-1.75z"></path> 
 <path d="m17.209 97.216a1.75 1.75 0 0 0 -1.75 1.75v6.88a1.75 1.75 0 0 0 3.5 0v-6.88a1.75 1.75 0 0 0 -1.75-1.75z"></path> 
 <path d="m29.21 97.216a1.75 1.75 0 0 0 -1.75 1.75v6.88a1.75 1.75 0 0 0 3.5 0v-6.88a1.75 1.75 0 0 0 -1.75-1.75z"></path> 
 <path d="m41.211 97.216a1.75 1.75 0 0 0 -1.75 1.75v6.88a1.75 1.75 0 0 0 3.5 0v-6.88a1.75 1.75 0 0 0 -1.75-1.75z"></path> 
 <path d="m53.211 97.216a1.75 1.75 0 0 0 -1.75 1.75v6.88a1.75 1.75 0 0 0 3.5 0v-6.88a1.749 1.749 0 0 0 -1.75-1.75z"></path> 
 <path d="m65.212 97.216a1.75 1.75 0 0 0 -1.75 1.75v6.88a1.75 1.75 0 0 0 3.5 0v-6.88a1.749 1.749 0 0 0 -1.75-1.75z"></path> 
 <path d="m17.209 117.618a1.751 1.751 0 0 0 -1.75 1.75v6.88a1.75 1.75 0 0 0 3.5 0v-6.88a1.751 1.751 0 0 0 -1.75-1.75z"></path> 
 <path d="m29.21 117.618a1.751 1.751 0 0 0 -1.75 1.75v6.88a1.75 1.75 0 0 0 3.5 0v-6.88a1.751 1.751 0 0 0 -1.75-1.75z"></path> 
 <path d="m41.211 117.618a1.751 1.751 0 0 0 -1.75 1.75v6.88a1.75 1.75 0 0 0 3.5 0v-6.88a1.751 1.751 0 0 0 -1.75-1.75z"></path> 
 <path d="m53.211 117.618a1.751 1.751 0 0 0 -1.75 1.75v6.88a1.75 1.75 0 0 0 3.5 0v-6.88a1.75 1.75 0 0 0 -1.75-1.75z"></path> 
 <path d="m65.212 117.618a1.751 1.751 0 0 0 -1.75 1.75v6.88a1.75 1.75 0 0 0 3.5 0v-6.88a1.75 1.75 0 0 0 -1.75-1.75z"></path> 
</g> 
</svg>