<svg xmlns="http://www.w3.org/2000/svg" fill="#ac926c" class="propery-theme-icon-fill" width="23.106" height="17.966" viewBox="0 0 23.106 17.966">
    <g id="bed" transform="translate(0)">
      <path id="Path_1513" data-name="Path 1513" d="M22.538,66.254a2.028,2.028,0,0,0-.782-2.362V58.984a2.033,2.033,0,0,0-2.031-2.031H3.381A2.033,2.033,0,0,0,1.35,58.984v4.908a2.028,2.028,0,0,0-.782,2.362H0v8.665H1.354V72.847h20.4v2.072h1.354V66.254ZM3.381,58.307H19.725a.678.678,0,0,1,.677.677v4.562H19.05v-.677a2.033,2.033,0,0,0-2.031-2.031H12.907a2.022,2.022,0,0,0-1.354.519,2.022,2.022,0,0,0-1.354-.519H6.086a2.033,2.033,0,0,0-2.031,2.031v.677H2.7V58.984A.678.678,0,0,1,3.381,58.307Zm7.5,5.239H5.409v-.677a.678.678,0,0,1,.677-.677H10.2a.678.678,0,0,1,.677.677Zm1.354-.677a.678.678,0,0,1,.677-.677H17.02a.678.678,0,0,1,.677.677v.677H12.23ZM1.805,65.577a.678.678,0,0,1,.677-.677H20.624a.677.677,0,0,1,0,1.354H2.482A.678.678,0,0,1,1.805,65.577Zm-.451,2.031h20.4v3.885H1.354Z" transform="translate(0 -56.953)"></path>
    </g>
</svg>