<svg xmlns="http://www.w3.org/2000/svg" fill="#ac926c" class="propery-theme-icon-fill" width="21.216" height="19.311" viewBox="0 0 21.216 19.311">
    <g id="_002-couple" data-name="002-couple" transform="translate(21.216 19.312) rotate(180)">
      <g id="Group_2329" data-name="Group 2329" transform="translate(2.956 11.422)">
        <g id="Group_2328" data-name="Group 2328">
          <path id="Path_1505" data-name="Path 1505" d="M75.276,30.874a3.945,3.945,0,1,1,3.945-3.945A3.949,3.949,0,0,1,75.276,30.874Zm0-6.646a2.7,2.7,0,1,0,2.7,2.7A2.7,2.7,0,0,0,75.276,24.227Z" transform="translate(-71.331 -22.984)"></path>
        </g>
      </g>
      <g id="Group_2331" data-name="Group 2331" transform="translate(0 0)">
        <g id="Group_2330" data-name="Group 2330">
          <path id="Path_1506" data-name="Path 1506" d="M18.108,238.713H13.436a3.113,3.113,0,0,1-.409-.028,4.855,4.855,0,0,1-4.08,2.227H4.855A4.86,4.86,0,0,1,0,236.058v-5.249a.622.622,0,0,1,.622-.622H20.595a.622.622,0,0,1,.622.622v4.8A3.111,3.111,0,0,1,18.108,238.713Zm-7.781-3.108V231.43H1.243v4.628a3.616,3.616,0,0,0,3.612,3.612H8.947a3.608,3.608,0,0,0,2.865-1.415A3.109,3.109,0,0,1,10.328,235.605Zm9.645-4.175h-8.4v4.175a1.867,1.867,0,0,0,1.865,1.865h4.673a1.867,1.867,0,0,0,1.865-1.865Z" transform="translate(0 -230.187)"></path>
        </g>
      </g>
      <g id="Group_2333" data-name="Group 2333" transform="translate(12.598 9.374)">
        <g id="Group_2332" data-name="Group 2332">
          <path id="Path_1507" data-name="Path 1507" d="M307.193,115.967a3.174,3.174,0,1,1,3.174-3.174A3.178,3.178,0,0,1,307.193,115.967Zm0-5.1a1.931,1.931,0,1,0,1.931,1.931A1.933,1.933,0,0,0,307.193,110.862Z" transform="translate(-304.019 -109.619)"></path>
        </g>
      </g>
    </g>
  </svg>