<svg xmlns="http://www.w3.org/2000/svg" width="26" height="21.104" viewBox="0 0 26 21.104">
							  <path data-name="Path 683" d="M26 2.494a10.619 10.619 0 0 1-3.065.844A5.286 5.286 0 0 0 25.273.39a10.807 10.807 0 0 1-3.39 1.3 5.329 5.329 0 0 0-9.221 3.636 5.5 5.5 0 0 0 .143 1.221A15.115 15.115 0 0 1 1.818.974a5.32 5.32 0 0 0 1.65 7.117 5.408 5.408 0 0 1-2.416-.662v.065a5.312 5.312 0 0 0 4.273 5.221 5.536 5.536 0 0 1-1.4.182 6.362 6.362 0 0 1-1-.091 5.329 5.329 0 0 0 4.974 3.7 10.682 10.682 0 0 1-6.623 2.286A10.3 10.3 0 0 1 0 18.714 15.131 15.131 0 0 0 8.169 21.1 15.048 15.048 0 0 0 23.325 5.948c0-.234 0-.455-.013-.688A10.471 10.471 0 0 0 26 2.494z" fill="#fff"/>
							</svg>