<svg data-name="Group 906" xmlns="http://www.w3.org/2000/svg" width="26" height="25.995" viewBox="0 0 26 25.995">
							  <path data-name="Path 32" d="M12.995 2.342c3.472 0 3.879.015 5.252.077a7.092 7.092 0 0 1 2.414.449 4.033 4.033 0 0 1 1.5.97 3.97 3.97 0 0 1 .97 1.5 7.225 7.225 0 0 1 .449 2.414c.062 1.372.077 1.78.077 5.252s-.015 3.879-.077 5.252a7.092 7.092 0 0 1-.449 2.414 4.033 4.033 0 0 1-.97 1.5 3.97 3.97 0 0 1-1.5.97 7.225 7.225 0 0 1-2.414.449c-1.372.062-1.78.077-5.252.077s-3.879-.015-5.252-.077a7.092 7.092 0 0 1-2.414-.449 4.033 4.033 0 0 1-1.5-.97 3.97 3.97 0 0 1-.97-1.5 7.225 7.225 0 0 1-.449-2.414c-.062-1.372-.077-1.78-.077-5.252s.015-3.879.077-5.252a7.092 7.092 0 0 1 .449-2.414 4.033 4.033 0 0 1 .97-1.5 3.97 3.97 0 0 1 1.5-.97 7.225 7.225 0 0 1 2.414-.449c1.372-.067 1.785-.077 5.252-.077m0-2.342c-3.529 0-3.972.015-5.36.077a9.525 9.525 0 0 0-3.152.6 6.334 6.334 0 0 0-2.3 1.5 6.446 6.446 0 0 0-1.5 2.3 9.531 9.531 0 0 0-.6 3.157C.015 9.023 0 9.466 0 12.995s.015 3.972.077 5.36a9.588 9.588 0 0 0 .6 3.157 6.334 6.334 0 0 0 1.5 2.3 6.446 6.446 0 0 0 2.3 1.5 9.531 9.531 0 0 0 3.157.6c1.388.062 1.826.077 5.36.077s3.972-.015 5.36-.077a9.588 9.588 0 0 0 3.157-.6 6.334 6.334 0 0 0 2.3-1.5 6.446 6.446 0 0 0 1.5-2.3 9.531 9.531 0 0 0 .6-3.157c.062-1.388.077-1.826.077-5.36s-.015-3.972-.077-5.36a9.588 9.588 0 0 0-.6-3.157 6.334 6.334 0 0 0-1.5-2.3 6.446 6.446 0 0 0-2.3-1.5 9.531 9.531 0 0 0-3.157-.6C16.967.015 16.523 0 12.995 0z" fill="#fff"/>
							  <path data-name="Path 33" d="M12.994 6.325A6.675 6.675 0 1 0 19.669 13a6.676 6.676 0 0 0-6.675-6.675zm0 11a4.333 4.333 0 1 1 4.333-4.333 4.333 4.333 0 0 1-4.333 4.333z" fill="#fff"/>
							  <circle data-name="Ellipse 5" cx="1.558" cy="1.558" r="1.558" transform="rotate(-45 16.175 -18.371)" fill="#fff"/>
							</svg>