<svg xmlns="http://www.w3.org/2000/svg" viewBox="0 0 70 70" fill="#f5b277" id="1022766956" class="svg u_1022766956" data-icon-name="wp-cocktail_thin" alt="Liu Resorts Antalya, Corner Superior Room"> <path d="M52.6,20.7c0.5-0.6,0.5-1.4,0.2-2.1c-0.3-0.7-1-1.1-1.8-1.1h-5.1c-0.3-1.3-1-2.4-2.1-3.1l1.1-2.5c0.2-0.5,0-1.1-0.5-1.3
	c-0.5-0.2-1.1,0-1.3,0.5L42,13.6c-0.3-0.1-0.6-0.1-1-0.1c-2.8,0-5,2.2-5,5c0,1.6,0.8,3,2,4l-1.4,3H23.9l-4.9-6h15v-2H19
	c-0.8,0-1.4,0.4-1.8,1.1c-0.3,0.7-0.3,1.5,0.2,2.1L34,40.9v16.6h-9c-0.6,0-1,0.4-1,1s0.4,1,1,1h20c0.6,0,1-0.4,1-1s-0.4-1-1-1h-9
	V40.9L52.6,20.7z M41,15.5c1.7,0,3,1.3,3,3c0,1.7-1.3,3-3,3s-3-1.3-3-3C38,16.8,39.3,15.5,41,15.5z M39.8,23.3
	c0.4,0.1,0.8,0.2,1.2,0.2c2.4,0,4.4-1.7,4.9-4l5.1,0l-5,6h-7.3L39.8,23.3z M35.7,27.5l-1.6,3.6c-0.2,0.5,0,1.1,0.5,1.3
	c0.1,0.1,0.3,0.1,0.4,0.1c0.4,0,0.7-0.2,0.9-0.6l2-4.4h6.5L35,38.9l-9.4-11.4H35.7z"></path> 
</svg>