<svg id="logo" xmlns="http://www.w3.org/2000/svg" viewBox="0 0 458.73 92.92" width="200px">
    <defs>
        <style>.cls-1{fill:#fff;}.cls-2{fill:#252b5a;}.cls-3{fill:#22aae2;}</style>
    </defs>
    <title>logo-white</title>
    <path class="cls-1"
          d="M0,77.78V15.13H30.43a26,26,0,0,1,8.9,1.48,20.59,20.59,0,0,1,7,4.12A19,19,0,0,1,50.88,27a19.38,19.38,0,0,1,1.65,8.05,18.33,18.33,0,0,1-3.17,10.56,19.61,19.61,0,0,1-8.46,7L54.06,77.78H36.87l-11.36-23H15.39v23ZM29,27.84H15.39V42.7H29a8.1,8.1,0,0,0,5.77-2.06A7,7,0,0,0,37,35.27a7,7,0,0,0-2.19-5.37A8.1,8.1,0,0,0,29,27.84Z"/>
    <path class="cls-1"
          d="M100.15,71.25a30.24,30.24,0,0,1-9,5.68,29,29,0,0,1-10.38,1.75,24.76,24.76,0,0,1-9.54-1.84,24.31,24.31,0,0,1-7.74-5.06,23.13,23.13,0,0,1-5.19-7.6,23.69,23.69,0,0,1-1.88-9.4,25,25,0,0,1,1.79-9.49,23.78,23.78,0,0,1,4.88-7.6,22.11,22.11,0,0,1,7.38-5.06,23.32,23.32,0,0,1,9.22-1.84,22.52,22.52,0,0,1,9.17,1.84A21.41,21.41,0,0,1,96,37.69a23.08,23.08,0,0,1,4.7,7.74,27.94,27.94,0,0,1,1.7,9.89v3.13H70.61a11.56,11.56,0,0,0,3.94,6.26,10.55,10.55,0,0,0,6.89,2.42,13.7,13.7,0,0,0,5.24-1,9.8,9.8,0,0,0,3.89-2.87ZM79.56,42.07a8.14,8.14,0,0,0-5.73,2.15,11.45,11.45,0,0,0-3.22,6H89a11.12,11.12,0,0,0-3.4-6A8.81,8.81,0,0,0,79.56,42.07Z"/>
    <path class="cls-1"
          d="M107.21,73l6.36-9.67A51.29,51.29,0,0,0,121.8,67a22.42,22.42,0,0,0,6.62,1,9.81,9.81,0,0,0,4.84-1,3.09,3.09,0,0,0,1.79-2.73,2.6,2.6,0,0,0-1-2.15A7.25,7.25,0,0,0,130.75,61l-8.86-1.61q-6.7-1.25-10.16-4.65a11.81,11.81,0,0,1-3.44-8.77,13.33,13.33,0,0,1,5.14-11.1q5.14-4,14.19-4a34.9,34.9,0,0,1,9.58,1.35,40.22,40.22,0,0,1,9.21,3.93l-6.62,9.22A33.89,33.89,0,0,0,133,42.34a22.21,22.21,0,0,0-6.48-1,8.18,8.18,0,0,0-4.08.85A2.61,2.61,0,0,0,121,44.58a2.45,2.45,0,0,0,1,2.15,9.92,9.92,0,0,0,3.71,1.16l8.68,1.61q6.81,1.26,10.38,4.7a11.18,11.18,0,0,1,3.49,8.63,13.76,13.76,0,0,1-1.47,6.31,15.06,15.06,0,0,1-4.17,5,20.66,20.66,0,0,1-6.35,3.31,25.21,25.21,0,0,1-7.88,1.21,45.84,45.84,0,0,1-11.72-1.44A29.92,29.92,0,0,1,107.21,73Z"/>
    <path class="cls-1"
          d="M187.76,64.89a15.79,15.79,0,0,0,7.78-2,21.21,21.21,0,0,0,6.54-5.81l10.11,9.57a29.87,29.87,0,0,1-10.92,8.68,31.71,31.71,0,0,1-14.05,3.32,34,34,0,0,1-13.06-2.51,32.54,32.54,0,0,1-10.48-6.8,32,32,0,0,1-9.48-22.91,32.06,32.06,0,0,1,2.55-12.76,31.29,31.29,0,0,1,7-10.24,33.07,33.07,0,0,1,10.47-6.81,33.67,33.67,0,0,1,13-2.5,32.84,32.84,0,0,1,14.41,3.31,29.18,29.18,0,0,1,11,8.86l-10.38,9.84a21.71,21.71,0,0,0-6.85-6.22,16.7,16.7,0,0,0-8.19-2.1,16.25,16.25,0,0,0-6.8,1.43,16.92,16.92,0,0,0-5.41,3.9,17.61,17.61,0,0,0-3.58,5.9,20.7,20.7,0,0,0-1.3,7.39,19.94,19.94,0,0,0,1.34,7.34,17.86,17.86,0,0,0,3.71,5.86,17.23,17.23,0,0,0,5.6,3.85A17.53,17.53,0,0,0,187.76,64.89Z"/>
    <path class="cls-1" d="M233.85,11.55V77.78h-14.5v-64Z"/>
    <path class="cls-1"
          d="M251.48,24.44a7.85,7.85,0,0,1-5.77-2.37,7.73,7.73,0,0,1-2.38-5.68,7.83,7.83,0,0,1,2.42-5.73,7.83,7.83,0,0,1,5.73-2.42,8,8,0,0,1,5.77,2.42,7.95,7.95,0,0,1,.09,11.41A8,8,0,0,1,251.48,24.44Zm7.25,7.16V77.78h-14.5V31.6Z"/>
    <path class="cls-1"
          d="M291.48,66.15A11.68,11.68,0,0,0,296.72,65a11.3,11.3,0,0,0,4.07-3.4l8.59,8.5a22.74,22.74,0,0,1-8.28,6.31,24.89,24.89,0,0,1-10.51,2.29,24.17,24.17,0,0,1-9.4-1.84,23.12,23.12,0,0,1-12.66-12.66,24.93,24.93,0,0,1,0-18.8,23,23,0,0,1,12.66-12.66,24.17,24.17,0,0,1,9.4-1.84,26.6,26.6,0,0,1,10.69,2.2,23,23,0,0,1,8.55,6.31L301,48.25a15.88,15.88,0,0,0-4.56-3.81,11.38,11.38,0,0,0-5.28-1.21A9.07,9.07,0,0,0,284,46.55a12.12,12.12,0,0,0-2.87,8.23,11.64,11.64,0,0,0,3,8.1A9.56,9.56,0,0,0,291.48,66.15Z"/>
    <path class="cls-1"
          d="M316.09,77.78v-64l14.5-2.24V50L346.7,31.6h16L343.93,52.27l20.13,25.51H346l-15.4-20.41V77.78Z"/>
    <path class="cls-2"
          d="M430,57.43l-2.22-1a6.21,6.21,0,0,0-.22-3.6,6.51,6.51,0,0,0-3.45-3.22,5.1,5.1,0,0,0-2.38-.57c-.06-.9-.27-1.43-.32-2.33A5.72,5.72,0,0,0,418,43.54a3,3,0,0,0-2-.42l2.69-6.3a5.48,5.48,0,0,0-3-7.4,8.54,8.54,0,0,0-4.71-.26,9.8,9.8,0,0,0-4.06,4.4l-6.8,15.94a10.47,10.47,0,0,0-6.13,0c-3.33,1.65-4.75,5-6.65,9.43l-1.1,2.6c-2.22,5.19-.73,8.89.76,12.59l.48,2c2.92,6.5,6.37,9.72,16.38,14,10.75,4.58,18.09.7,23.62-12.27l3.95-9.27C432.52,65.94,434,60.44,430,57.43Z"/>
    <path class="cls-1"
          d="M427.72,67l-4.11,9.64c-5.37,12.6-11.3,13.14-18.34,10.14-8.89-3.79-11.76-6.32-13.89-11.6L390.53,73c-1.33-4.07-2.18-6.19-.6-9.89l1.11-2.6c1.58-3.71,2.68-6.3,4.43-7.31a4.73,4.73,0,0,1,2.9.37l-.78,1.85-3.49,5.08c-.15.38-.15.38.06.9a.56.56,0,0,0,.74.32l5.61-2.87.31-.74,9.79-23a4.32,4.32,0,0,1,1.85-2.27c.37.16.9-.06,1.64.26a1.7,1.7,0,0,1,.85,2.12l-4.89,11.48-1.9,4.45a2.26,2.26,0,0,0,.91,3,2.17,2.17,0,0,0,2.64-1.07l2.05-4.82a2.55,2.55,0,0,1,.83-.9,1.82,1.82,0,0,1,1.81-.17c1.11.48,1.69,1.16,1.22,2.28l-2.05,4.82a2.25,2.25,0,0,0,.9,3,2.16,2.16,0,0,0,2.65-1.06l1.1-2.6c.16-.37.85-.95,2.33-.32a1.82,1.82,0,0,1,1,.84,1.94,1.94,0,0,1,.1,1.8l-1.26,3a1.86,1.86,0,0,0,.69,2.49c1.12.47,2,.42,2.49-.7.16-.37.69-.58,1.22-.79l.74.31C429.4,62,428.19,65.85,427.72,67Z"/>
    <path class="cls-3"
          d="M383.75,61.34l1.32-.7a1.53,1.53,0,0,0-1.44-2.71l-1.32.71a38,38,0,0,1-3.76-18.83l5.15-2.75a51.59,51.59,0,0,0,3.39,13.62,1.53,1.53,0,0,0,2.85-1.13,48,48,0,0,1-3.31-14.06l10-5.36c.95,2.9,2.05,5.8,3.23,8.54a1.53,1.53,0,1,0,2.81-1.2c-1.29-3-2.4-6-3.31-8.8l16-8.54A112.76,112.76,0,0,1,425.5,35.57l-4.05,2.16a1.53,1.53,0,0,0,1.44,2.7l4.05-2.16c4.57,8.79,7.83,17.53,9.24,24.74,1.32,6.8.81,11.56-1.37,12.73s-1.89,1.57-4.24,2.29a1.53,1.53,0,0,0,.9,2.93c2.54-.78,2.43-1.26,4.79-2.52a41.35,41.35,0,0,0,17-56,41.35,41.35,0,1,0-72.94,39M455,44.12l-5.14,2.74a52.72,52.72,0,0,0-5.36-18l6.74-3.6A38.06,38.06,0,0,1,455,44.12ZM443,26.19a52.54,52.54,0,0,0-12-14.45L436.22,9a37.92,37.92,0,0,1,13.57,13.59ZM432.94,7.28l-4.51,2.41a42,42,0,0,0-6.12-3.64A35.35,35.35,0,0,0,416,3.69,38.44,38.44,0,0,1,432.94,7.28Zm-7.56,4-9.24,4.94c-3.92-4.66-7.89-8.29-11.47-10.12C411.31,4.92,418.66,6.87,425.38,11.31ZM378.94,36.13A38.55,38.55,0,0,1,385.42,20a33.73,33.73,0,0,0-1.13,4,40,40,0,0,0-.82,9.68Zm7.57-4a35.8,35.8,0,0,1,.78-7.41A25.8,25.8,0,0,1,393.7,12c-.46,4.11.44,9.53,2.05,15.14Zm12-6.41a53,53,0,0,1-1.67-8.21c-.55-5,.14-8.34,1.9-9.28,2.17-1.16,6.41,1.06,11.33,5.94,1.1,1.1,2.22,2.3,3.33,3.59Zm19.6-7,10-5.37a49.17,49.17,0,0,1,12.19,14.32L428.2,34.12A117.19,117.19,0,0,0,418.1,18.68Zm23.69,11.66a49.07,49.07,0,0,1,5.12,18.09l-10,5.37a117.16,117.16,0,0,0-7.23-17Zm-4,26.44L447,51.84c-.05,8.06-2.52,15.25-7.21,20.1C440.3,68,439.49,62.63,437.79,56.78Zm10.35,7.13a35.27,35.27,0,0,0,1.56-6.59,41.88,41.88,0,0,0,.38-7.11l4.52-2.41A38.58,38.58,0,0,1,448.14,63.91Z"/>
    <path class="cls-3"
          d="M431,81.62a2.13,2.13,0,0,1-.62-4.16,6.5,6.5,0,0,0,2.33-1.12,15.47,15.47,0,0,1,1.8-1.13c1.91-1,2.32-5.65,1.07-12.09-1.36-7-4.52-15.49-8.91-24L423.17,41a2.12,2.12,0,0,1-2.87-.87,2.13,2.13,0,0,1-.16-1.62,2.15,2.15,0,0,1,1-1.26l3.52-1.87a111.73,111.73,0,0,0-9.47-14.44L400.12,29c.88,2.68,1.93,5.46,3.14,8.27a2.12,2.12,0,0,1-3.9,1.68c-1.14-2.65-2.16-5.31-3-7.93l-9.08,4.85a47.29,47.29,0,0,0,3.24,13.5,2.14,2.14,0,0,1,0,1.63,2.14,2.14,0,0,1-2.79,1.1,2.12,2.12,0,0,1-1.14-1.16A52.25,52.25,0,0,1,383.21,38l-4.09,2.18a37.85,37.85,0,0,0,3.45,17.66l.78-.42a2.17,2.17,0,0,1,1.62-.16,2.13,2.13,0,0,1,1.25,1,2.08,2.08,0,0,1,.16,1.62,2.11,2.11,0,0,1-1,1.26l-1.32.71-.56-1,1.32-.71a.9.9,0,0,0,.46-.55,1,1,0,0,0-.07-.72.93.93,0,0,0-.56-.45.88.88,0,0,0-.71.07l-1.87,1-.27-.55A38.91,38.91,0,0,1,378,39.77l0-.33,6.21-3.32.09.88a51,51,0,0,0,3.37,13.46.93.93,0,0,0,.5.51.94.94,0,0,0,1.23-.48,1,1,0,0,0,0-.73A48.46,48.46,0,0,1,386,35.54l0-.39,11-5.87.22.67c.92,2.8,2,5.65,3.21,8.49a.91.91,0,0,0,.52.5.94.94,0,0,0,1.21-1.24c-1.29-3-2.41-6-3.33-8.85l-.15-.47,16.85-9,.3.38A113,113,0,0,1,426,35.28l.29.52-4.57,2.45a.94.94,0,0,0-.39,1.27,1,1,0,0,0,.56.46,1,1,0,0,0,.72-.07l4.57-2.45.27.53c4.59,8.84,7.89,17.68,9.3,24.91s.79,12.05-1.67,13.36a14.56,14.56,0,0,0-1.67,1,7.55,7.55,0,0,1-2.68,1.3.94.94,0,0,0-.62,1.17,1,1,0,0,0,1.18.62,8.49,8.49,0,0,0,2.75-1.3A17.79,17.79,0,0,1,436,77.92a40.76,40.76,0,1,0-55.16-16.75l-1.05.56A42,42,0,1,1,436.54,79a17.71,17.71,0,0,0-1.83,1.11,9.57,9.57,0,0,1-3.06,1.45A2,2,0,0,1,431,81.62Zm8-8,.21-1.74c.43-3.7-.27-8.86-2-14.93l-.13-.46,10.54-5.63v1c-.05,8.37-2.67,15.65-7.37,20.51Zm-.55-16.53a46.09,46.09,0,0,1,2.06,13.17c3.6-4.39,5.66-10.48,5.87-17.41Zm7.7,10.66,1.39-4a35.15,35.15,0,0,0,1.54-6.49,41.34,41.34,0,0,0,.37-7v-.37l5.88-3.14-.18,1.17a39.26,39.26,0,0,1-6.56,16.36Zm4.49-17.18a42.72,42.72,0,0,1-.39,6.84c-.13.91-.29,1.8-.48,2.68a38.39,38.39,0,0,0,4-11.19Zm-14.15,4.09-.22-.67a116.93,116.93,0,0,0-7.2-16.88l-.26-.52,13.19-7,.28.54a50.16,50.16,0,0,1,5.18,18.32l0,.38Zm-6.1-17.58A117.34,117.34,0,0,1,437.21,53l9.08-4.86a48.68,48.68,0,0,0-4.77-16.94ZM449.35,47.8l-.09-.88A51.65,51.65,0,0,0,444,29.16l-.26-.52,7.8-4.16.27.55a38.89,38.89,0,0,1,3.81,19.12l0,.33Zm-4.08-18.66a53,53,0,0,1,5.07,16.79l4.07-2.18A37.56,37.56,0,0,0,451,26.1Zm-67.09,8.07.18-1.17a39.28,39.28,0,0,1,6.58-16.39l2.45-3.51-1.41,4a33.46,33.46,0,0,0-1.11,4,39.59,39.59,0,0,0-.81,9.53v.37Zm5.55-13.36a38.43,38.43,0,0,0-4,11.18l3.13-1.67a41.06,41.06,0,0,1,.85-9.45S383.72,23.87,383.73,23.85ZM428,34.92l-.28-.51a117.56,117.56,0,0,0-10-15.37l-.44-.55,11-5.88.3.24a50,50,0,0,1,12.35,14.49l.3.53Zm-9-16a117.52,117.52,0,0,1,9.43,14.46l11.09-5.93A49,49,0,0,0,428.09,14ZM385.91,33.08v-1a37.53,37.53,0,0,1,.8-7.53,26.41,26.41,0,0,1,6.57-12.95l1.21-1.26-.2,1.73c-.42,3.69.28,8.85,2,14.91l.13.46ZM393,13.69a26.09,26.09,0,0,0-5.13,11.11,35.37,35.37,0,0,0-.75,6.29l7.93-4.24A46.43,46.43,0,0,1,393,13.69ZM442.82,27l-.29-.5A51.53,51.53,0,0,0,430.71,12.2l-.68-.57,6.21-3.31.28.17a38.77,38.77,0,0,1,13.78,13.8l.31.53ZM432.13,11.85A52.84,52.84,0,0,1,443.27,25.4l5.69-3A37.63,37.63,0,0,0,436.21,9.68Zm-34,14.7-.2-.71a53,53,0,0,1-1.69-8.3c-.59-5.29.2-8.8,2.21-9.87,2.45-1.31,6.84.89,12,6,1.1,1.09,2.22,2.31,3.36,3.63l.48.56Zm1.95-18.08a2.25,2.25,0,0,0-1.07.24c-1.51.81-2.11,4.06-1.59,8.7a49.54,49.54,0,0,0,1.46,7.4l13.58-7.26c-.95-1.08-1.9-2.09-2.81-3C405.74,10.67,402.23,8.47,400.08,8.47ZM416,17l-.31-.37c-4.07-4.83-8-8.28-11.28-10l-1.56-.8,1.72-.31c6.65-1.21,14.16.66,21.14,5.27l.83.55ZM406.47,6.48a45.65,45.65,0,0,1,9.81,9l7.94-4.24C418.33,7.59,412.12,5.92,406.47,6.48Zm21.91,3.9-.3-.21a40.09,40.09,0,0,0-6-3.58,34.67,34.67,0,0,0-6.25-2.33L411.7,3.18,416,3.1a39.25,39.25,0,0,1,17.24,3.64l1.08.5Zm-8.3-6c.84.33,1.67.69,2.49,1.09A43.32,43.32,0,0,1,428.47,9l3.13-1.67A38.62,38.62,0,0,0,420.08,4.43Z"/>
</svg>
